Coordinates
version=1
nRows=17
nColumns=40
inDegrees=yes

Units are S.I. units (second, meters, Newtons, ...)
If the header above contains a line with 'inDegrees', this indicates whether rotational values are in degrees (yes) or radians (no).

endheader
time	pelvis_tilt	pelvis_list	pelvis_rotation	pelvis_tx	pelvis_ty	pelvis_tz	hip_flexion_r	hip_adduction_r	hip_rotation_r	knee_angle_r	knee_angle_r_beta	ankle_angle_r	subtalar_angle_r	mtp_angle_r	hip_flexion_l	hip_adduction_l	hip_rotation_l	knee_angle_l	knee_angle_l_beta	ankle_angle_l	subtalar_angle_l	mtp_angle_l	lumbar_extension	lumbar_bending	lumbar_rotation	arm_flex_r	arm_add_r	arm_rot_r	elbow_flex_r	pro_sup_r	wrist_flex_r	wrist_dev_r	arm_flex_l	arm_add_l	arm_rot_l	elbow_flex_l	pro_sup_l	wrist_flex_l	wrist_dev_l
      4.46000000	     -5.67076366	      0.14420028	     -3.50653042	     -0.12028028	      1.45055349	     -0.87315538	     -7.75943021	     -4.58588706	    -19.63619858	     10.70376148	      0.18681588	    -38.77275124	      0.00000000	      0.00000000	     -7.01529403	    -11.76607178	    -16.63114682	     10.90586469	      0.19034325	    -38.30173142	      0.00000000	      0.00000000	      2.86935208	      1.78852241	      3.69217835	    -46.97340302	    -48.06425426	     14.86748596	    104.53801689	     87.97166421	      0.00000000	      0.00000000	    -45.14203340	    -56.44211526	     14.60796212	    112.63227177	     87.92714418	      0.00000000	      0.00000000
      4.46500000	     -5.70695389	      0.13337398	     -3.62133651	     -0.12059324	      1.45031738	     -0.87327621	     -7.53798332	     -4.75504779	    -19.61465949	     10.57418882	      0.18455441	    -38.73412535	      0.00000000	      0.00000000	     -7.03865298	    -11.82798930	    -16.57522962	     10.41556295	      0.18178587	    -38.20756664	      0.00000000	      0.00000000	      2.78754829	      1.91803233	      3.76270999	    -47.07911317	    -48.12016984	     14.85281754	    104.77180340	     87.98389605	      0.00000000	      0.00000000	    -44.81333656	    -56.28517578	     14.82742720	    112.60775364	     87.91739823	      0.00000000	      0.00000000
      4.47000000	     -5.71334410	      0.09490439	     -3.66825986	     -0.12092058	      1.44987685	     -0.87350760	     -7.34500470	     -4.90463520	    -19.82224993	     10.47364663	      0.18279962	    -38.69551981	      0.00000000	      0.00000000	     -7.10400075	    -11.90941400	    -16.49894978	      9.88671858	      0.17255579	    -38.13490129	      0.00000000	      0.00000000	      2.66872641	      2.07466082	      3.76126899	    -47.17357964	    -48.21452291	     14.85658209	    105.00998201	     87.97587440	      0.00000000	      0.00000000	    -44.45108790	    -56.18584568	     15.17708858	    112.60355209	     87.91757717	      0.00000000	      0.00000000
      4.47500000	     -5.77601266	      0.06243383	     -3.71881469	     -0.12131760	      1.44909747	     -0.87364068	     -7.10520221	     -5.04138540	    -19.95753130	     10.31292526	      0.17999450	    -38.62981959	      0.00000000	      0.00000000	     -6.99569845	    -12.05271063	    -16.55448581	      9.62644714	      0.16801320	    -37.96335742	      0.00000000	      0.00000000	      2.57507041	      2.19920254	      3.68514699	    -47.14995506	    -48.30638751	     14.90910613	    105.19178239	     87.98229443	      0.00000000	      0.00000000	    -44.30760615	    -55.99713646	     15.30047549	    112.70598915	     87.92629830	      0.00000000	      0.00000000
      4.48000000	     -5.84880401	      0.01766831	     -3.78169146	     -0.12177405	      1.44807613	     -0.87376173	     -6.84943103	     -5.17549581	    -20.18201692	     10.13635450	      0.17691276	    -38.57998462	      0.00000000	      0.00000000	     -6.90714547	    -12.19981970	    -16.67096213	      9.31096234	      0.16250695	    -37.80536316	      0.00000000	      0.00000000	      2.48976030	      2.36100807	      3.58688560	    -47.11941131	    -48.46629356	     15.00355663	    105.38288893	     87.98727876	      0.00000000	      0.00000000	    -44.15501180	    -55.85360906	     15.53187634	    112.74322844	     87.93655620	      0.00000000	      0.00000000
      4.48500000	     -5.94386513	     -0.00804305	     -3.90985103	     -0.12203628	      1.44676167	     -0.87379528	     -6.56707531	     -5.33697454	    -20.42850699	      9.94610483	      0.17359228	    -38.51235517	      0.00000000	      0.00000000	     -6.85253288	    -12.31731584	    -16.89362733	      8.95530481	      0.15629955	    -37.59285570	      0.00000000	      0.00000000	      2.44996161	      2.49923337	      3.51406804	    -47.07571445	    -48.68975403	     15.13322801	    105.51781247	     87.98969609	      0.00000000	      0.00000000	    -44.03743255	    -55.73387118	     15.89310974	    112.74994431	     87.94527919	      0.00000000	      0.00000000
      4.49000000	     -5.97119237	     -0.00590590	     -3.84604063	     -0.12268321	      1.44531426	     -0.87419116	     -6.35866262	     -5.52026444	    -20.71345001	      9.77041821	      0.17052597	    -38.43510920	      0.00000000	      0.00000000	     -6.71146776	    -12.43085191	    -17.02683338	      8.73865263	      0.15251826	    -37.53985224	      0.00000000	      0.00000000	      2.28530281	      2.60288165	      3.29909612	    -46.98171084	    -48.86310768	     15.22891910	    105.65461798	     87.98969577	      0.00000000	      0.00000000	    -43.79429077	    -55.62476830	     16.22001353	    112.77934078	     87.95239468	      0.00000000	      0.00000000
      4.49500000	     -5.96857005	      0.00543021	     -3.87743249	     -0.12326209	      1.44371098	     -0.87431425	     -6.15628054	     -5.74345238	    -21.31311615	      9.59866830	      0.16752837	    -38.41001317	      0.00000000	      0.00000000	     -6.62510069	    -12.54867955	    -17.34817588	      8.56074286	      0.14941315	    -37.47161886	      0.00000000	      0.00000000	      2.12160617	      2.70486728	      3.19237123	    -46.77199674	    -49.12968002	     15.59642324	    105.73341844	     87.98513618	      0.00000000	      0.00000000	    -43.24526265	    -55.73647102	     17.04467514	    112.57466299	     87.94303530	      0.00000000	      0.00000000
      4.50000000	     -6.02758344	      0.03145122	     -3.87217296	     -0.12366633	      1.44173559	     -0.87452679	     -5.92081126	     -5.94477572	    -21.48275670	      9.38393941	      0.16378064	    -38.24363682	      0.00000000	      0.00000000	     -6.46805569	    -12.65761654	    -17.56166922	      8.38486877	      0.14634357	    -37.30359820	      0.00000000	      0.00000000	      1.99797992	      2.76582588	      2.99530854	    -46.71794468	    -49.17780806	     15.53657740	    105.74884664	     87.97558763	      0.00000000	      0.00000000	    -43.16203435	    -55.65304848	     17.27937433	    112.64115136	     87.95139350	      0.00000000	      0.00000000
      4.50500000	     -6.06569190	      0.07944038	     -3.79910650	     -0.12428239	      1.43953968	     -0.87478120	     -5.72623979	     -6.15801967	    -21.85093770	      9.10092226	      0.15884106	    -38.03622602	      0.00000000	      0.00000000	     -6.28476254	    -12.76054605	    -17.89440758	      8.28243220	      0.14455571	    -37.18100158	      0.00000000	      0.00000000	      1.87639813	      2.80048361	      2.76586281	    -46.65529037	    -49.32012624	     15.55067426	    105.81000616	     87.97510547	      0.00000000	      0.00000000	    -42.97270623	    -55.69051782	     17.64077873	    112.55561154	     87.95809771	      0.00000000	      0.00000000
      4.51000000	     -6.06198911	      0.11844204	     -3.70664086	     -0.12503794	      1.43721306	     -0.87505847	     -5.51696914	     -6.40058926	    -22.43591587	      8.94544983	      0.15612755	    -37.95907599	      0.00000000	      0.00000000	     -6.04343036	    -12.91602395	    -18.27292841	      8.37695253	      0.14620540	    -37.00610970	      0.00000000	      0.00000000	      1.63629298	      2.90023704	      3.12733079	    -47.47447932	    -48.80603717	     14.76341879	    105.87673377	     87.96640383	      0.00000000	      0.00000000	    -41.06858445	    -56.39588001	     19.72400775	    112.21174418	     87.92550364	      0.00000000	      0.00000000
      4.51500000	     -6.04761840	      0.16814026	     -3.67668728	     -0.12597018	      1.43454595	     -0.87513014	     -5.30310432	     -6.62092962	    -22.63621753	      8.73255565	      0.15241185	    -37.71091380	      0.00000000	      0.00000000	     -5.86355027	    -13.03243396	    -18.62709461	      8.38013135	      0.14626088	    -36.97764737	      0.00000000	      0.00000000	      1.35389412	      2.91894787	      2.90126407	    -47.34021674	    -48.86344078	     14.69589427	    105.93549490	     87.96615383	      0.00000000	      0.00000000	    -40.99565110	    -56.41775371	     19.84014689	    112.13153296	     87.93055063	      0.00000000	      0.00000000
      4.52000000	     -6.04028560	      0.24434854	     -3.59173836	     -0.12676873	      1.43167747	     -0.87527440	     -5.11195574	     -6.85960419	    -22.92849425	      8.48268454	      0.14805077	    -37.46472382	      0.00000000	      0.00000000	     -5.60344421	    -13.16890178	    -19.03827307	      8.54377889	      0.14911707	    -36.88272847	      0.00000000	      0.00000000	      1.10175390	      2.89751293	      2.64190095	    -47.20924099	    -48.95179800	     14.72682164	    105.95846104	     87.97228310	      0.00000000	      0.00000000	    -40.81978385	    -56.46348389	     20.02010894	    111.96513851	     87.92925567	      0.00000000	      0.00000000
      4.52500000	     -6.08070067	      0.30411236	     -3.51535439	     -0.12718209	      1.42841490	     -0.87549787	     -4.87564874	     -7.10059819	    -23.26911399	      8.27423836	      0.14441270	    -37.19834527	      0.00000000	      0.00000000	     -5.34688321	    -13.30175099	    -19.46820405	      8.67306011	      0.15137346	    -36.73572850	      0.00000000	      0.00000000	      0.95719840	      2.92459521	      2.40387884	    -47.15825658	    -49.01862858	     14.75479359	    105.96980471	     87.97551752	      0.00000000	      0.00000000	    -40.71531094	    -56.51363429	     20.24575060	    111.77671826	     87.92990368	      0.00000000	      0.00000000
      4.53000000	     -6.08208962	      0.42460727	     -3.37756062	     -0.12816564	      1.42499749	     -0.87577738	     -4.63519006	     -7.39374865	    -23.43550633	      8.08116968	      0.14104302	    -36.89220648	      0.00000000	      0.00000000	     -5.06852219	    -13.36323474	    -19.68935899	      8.74684942	      0.15266132	    -36.63895748	      0.00000000	      0.00000000	      0.67654608	      2.86383243	      2.09434034	    -47.04703548	    -49.01677342	     14.68746660	    106.02387530	     87.87829664	      0.00000000	      0.00000000	    -40.61965463	    -56.59326738	     20.32599887	    111.66046077	     87.83637370	      0.00000000	      0.00000000
      4.53500000	     -5.99756409	      0.51857958	     -3.34625750	     -0.12922301	      1.42145614	     -0.87587005	     -4.46173288	     -7.67934884	    -23.71260321	      7.89923893	      0.13786773	    -36.45336248	      0.00000000	      0.00000000	     -4.84088406	    -13.48691849	    -20.16234490	      9.04813206	      0.15791970	    -36.53934463	      0.00000000	      0.00000000	      0.33256178	      2.83069642	      1.97277119	    -46.96373733	    -49.07976345	     14.72285193	    106.08369540	     87.90775143	      0.00000000	      0.00000000	    -40.40180557	    -56.70487946	     20.46782044	    111.44354672	     87.86639716	      0.00000000	      0.00000000
      4.54000000	     -6.07712932	      0.57188214	     -3.35731252	     -0.12972313	      1.41738374	     -0.87603757	     -4.11597070	     -7.91468845	    -23.84637174	      7.72791966	      0.13487764	    -36.05724514	      0.00000000	      0.00000000	     -4.53300813	    -13.63107976	    -20.74127500	      9.25699209	      0.16156499	    -36.41107299	      0.00000000	      0.00000000	      0.17510167	      2.88953853	      1.83821455	    -47.03769467	    -49.10028169	     14.61699430	    106.13959609	     87.94195739	      0.00000000	      0.00000000	    -40.33283647	    -56.70103444	     20.54663390	    111.21044683	     87.89329638	      0.00000000	      0.00000000
